<?xml version="1.0" encoding="utf-8"?>
<!-- Generator: Adobe Illustrator 17.0.0, SVG Export Plug-In . SVG Version: 6.00 Build 0)  -->
<!DOCTYPE svg PUBLIC "-//W3C//DTD SVG 1.1//EN" "http://www.w3.org/Graphics/SVG/1.1/DTD/svg11.dtd">
<svg version="1.1" id="Layer_1" xmlns="http://www.w3.org/2000/svg" xmlns:xlink="http://www.w3.org/1999/xlink" x="0px" y="0px"
	 width="53.84px" height="53.323px" viewBox="0 0 53.84 53.323" enable-background="new 0 0 53.84 53.323" xml:space="preserve">
<path fill="#323232" d="M4.226,31.193l17.91,17.91c3.634,3.634,9.525,3.634,13.158,0l3.735-3.734c1.02-1.021,1.02-2.675,0-3.696
	l-4.824-4.823c-0.962-0.963-2.523-0.963-3.486,0l-0.821,0.822c-1.667,1.667-4.368,1.667-6.035,0l-8.205-8.206
	c-1.667-1.667-1.667-4.368,0-6.035l0.821-0.821c0.963-0.963,0.963-2.523,0-3.486L11.656,14.3c-1.021-1.02-2.675-1.02-3.696,0
	l-3.734,3.735C0.592,21.669,0.592,27.559,4.226,31.193"/>
<path fill="#323232" d="M28.715,53.323c-2.766,0-5.533-1.053-7.639-3.159L3.165,32.254C1.124,30.214,0,27.501,0,24.614
	c0-2.886,1.124-5.599,3.165-7.64L6.9,13.24c1.603-1.603,4.213-1.603,5.816,0l4.823,4.823c0.749,0.749,1.162,1.745,1.162,2.804
	s-0.413,2.055-1.162,2.804l-0.821,0.821c-1.079,1.079-1.079,2.835,0,3.914l8.205,8.205c1.08,1.078,2.834,1.078,3.914,0l0.822-0.821
	c1.498-1.498,4.109-1.498,5.607,0l4.823,4.823c1.604,1.604,1.604,4.213,0,5.817l-3.734,3.734
	C34.248,52.27,31.482,53.323,28.715,53.323 M9.808,15.036c-0.285,0-0.57,0.108-0.787,0.325l-3.734,3.735
	C3.813,20.57,3,22.53,3,24.614c0,2.085,0.813,4.045,2.287,5.519l17.91,17.91c1.474,1.473,3.434,2.286,5.518,2.286
	s4.044-0.813,5.519-2.286l3.734-3.735c0.434-0.433,0.434-1.14,0-1.574l-4.823-4.823c-0.377-0.377-0.988-0.377-1.365,0l-0.822,0.821
	c-1.089,1.09-2.538,1.69-4.078,1.69c-1.54,0-2.988-0.6-4.078-1.69l-8.205-8.205c-1.09-1.09-1.689-2.538-1.689-4.078
	s0.599-2.988,1.689-4.078l0.821-0.821c0.376-0.376,0.376-0.99,0-1.366l-4.823-4.823C10.378,15.144,10.093,15.036,9.808,15.036"/>
<path fill="#323232" d="M36.585,30.212c-0.828,0-1.5-0.672-1.5-1.5c0-5.491-4.467-9.958-9.957-9.958c-0.828,0-1.5-0.672-1.5-1.5
	s0.672-1.5,1.5-1.5c7.145,0,12.957,5.812,12.957,12.958C38.085,29.54,37.413,30.212,36.585,30.212"/>
<path fill="#323232" d="M44.198,30.212c-0.828,0-1.5-0.672-1.5-1.5c0-9.688-7.882-17.571-17.57-17.571c-0.828,0-1.5-0.672-1.5-1.5
	s0.672-1.5,1.5-1.5c11.342,0,20.57,9.228,20.57,20.571C45.698,29.54,45.026,30.212,44.198,30.212"/>
<path fill="#323232" d="M52.34,30.212c-0.828,0-1.5-0.672-1.5-1.5C50.84,14.534,39.306,3,25.128,3c-0.828,0-1.5-0.672-1.5-1.5
	S24.3,0,25.128,0C40.96,0,53.84,12.88,53.84,28.712C53.84,29.54,53.168,30.212,52.34,30.212"/>
</svg>
