<?xml version="1.0" encoding="utf-8"?>
<!-- Generator: Adobe Illustrator 17.0.0, SVG Export Plug-In . SVG Version: 6.00 Build 0)  -->
<!DOCTYPE svg PUBLIC "-//W3C//DTD SVG 1.1//EN" "http://www.w3.org/Graphics/SVG/1.1/DTD/svg11.dtd">
<svg version="1.1" id="Layer_1" xmlns="http://www.w3.org/2000/svg" xmlns:xlink="http://www.w3.org/1999/xlink" x="0px" y="0px"
	 width="43.036px" height="43.036px" viewBox="0 0 43.036 43.036" enable-background="new 0 0 43.036 43.036" xml:space="preserve">
<path fill="#323232" d="M27.435,19.752c0-4.236-3.447-7.684-7.684-7.684c-4.236,0-7.683,3.448-7.683,7.684s3.447,7.683,7.683,7.683
	C23.988,27.435,27.435,23.988,27.435,19.752"/>
<path fill="#323232" d="M21.518,0C9.653,0,0,9.652,0,21.517s9.653,21.519,21.518,21.519c11.864,0,21.517-9.654,21.517-21.519
	S33.382,0,21.518,0 M33.528,33.528c-0.293,0.293-0.677,0.439-1.061,0.439c-0.383,0-0.767-0.146-1.06-0.439l-5.248-5.248
	c-1.788,1.346-4.003,2.154-6.408,2.154c-5.89,0-10.683-4.792-10.683-10.682c0-5.891,4.793-10.684,10.683-10.684
	c5.891,0,10.684,4.793,10.684,10.684c0,2.405-0.809,4.619-2.155,6.407l5.248,5.248C34.114,31.993,34.114,32.942,33.528,33.528"/>
</svg>
